<?xml version="1.0" standalone="no"?><!DOCTYPE svg PUBLIC "-//W3C//DTD SVG 1.1//EN" "http://www.w3.org/Graphics/SVG/1.1/DTD/svg11.dtd"><svg t="1592205165880" class="icon" viewBox="0 0 1024 1024" version="1.1" xmlns="http://www.w3.org/2000/svg" p-id="1294" xmlns:xlink="http://www.w3.org/1999/xlink" width="200" height="200"><defs><style type="text/css"></style></defs><path d="M544.36345629 296.48592555h-32.36345629c5.56651406-10.51812295 10.97121223-21.3598811 16.24645518-32.36345629 5.17815296 11.16539221 10.55048704 21.84533333 16.11700111 32.36345629z" fill="#FF6494" p-id="1295"></path><path d="M641.45382741 296.48592555h-194.18074112l50.81062742-48.54518443c6.11669333-5.79305927 12.07156963-11.87738851 17.79990072-18.05880888L544.36345629 199.39555556l28.47984298 30.48637668c5.59887815 6.08433038 11.58611741 12.16865963 17.79990073 18.05880888L641.45382741 296.48592555z" fill="#EA2D48" p-id="1296"></path><path d="M497.63062557 1008.48197518c-7.67013888 0-15.40500594-1.84471666-22.42787556-5.56651406l-144.27629113-75.73048888-0.51781518-0.3236352-116.02299221-66.99235556A50.5193563 50.5193563 0 0 1 188.36543261 815.36922852l0.32363406-376.67827371 25.59949482-5.24288c96.11946667-19.83879851 177.83719481-71.45851221 249.74879517-157.86894222l9.57958371-11.45666333h63.20583112l9.57958257 11.45666333c68.83707221 82.59154147 142.46393629 131.49272519 231.68998741 153.85587371l25.17876964 6.31087445-12.2981137 380.36770702a50.35753927 50.35753927 0 0 1-24.98458852 43.20521557l-103.17470038 67.4454437-142.56102741 76.15121408c-7.11996075 3.72179741-14.88718962 5.56651406-22.65441963 5.56651406z m-136.50906112-139.00104704l136.41196998 71.68505743 133.43453298-71.26433223 96.44310073-63.04401408 10.42103296-320.91603741c-86.57224704-26.86166926-162.23800889-78.22247481-230.10417777-156.34785963h-5.01633594c-72.88250482 83.69189888-155.08568519 136.83269518-250.29897443 161.91437483l-0.32363406 314.99352405 109.03248555 62.97928704z" fill="#A389F9" p-id="1297"></path><path d="M429.14955037 501.08769963c0 23.65768704-17.6380837 42.78449038-39.48341704 42.78449038-21.84533333 0-39.48341703-19.22389333-39.48341703-42.78449038 0-23.56059705 17.73517483-42.78449038 39.48341703-42.78448925 21.74824334 0 39.48341703 19.09443925 39.48341704 42.78448925z m277.03119075 0c0 23.65768704-17.73517483 42.78449038-39.48341817 42.78449038-21.74824334 0-39.48341703-19.22389333-39.48341703-42.78449038 0-23.56059705 17.73517483-42.78449038 39.48341703-42.78448925 21.84533333 0 39.48341703 19.09443925 39.48341817 42.78448925zM528.24645518 846.66469149c-95.14856334 0-172.49722482-83.88608-172.49722481-186.86659925h61.84656668c0 66.11854222 49.61317888 119.84188075 110.65065813 119.8418796 61.0051163 0 110.61829518-53.82042851 110.61829519-119.8418796h61.84656668c0 102.98051925-77.41338851 186.86659925-172.49722482 186.86659925z" fill="#A389F9" p-id="1298"></path><path d="M932.17475925 446.71709184c0.32363406-6.47269149 0.55017927-12.94538297 0.55017928-19.48280035 0-179.16409629-125.47312185-330.10725888-296.44926408-375.57791631A417.00314112 417.00314112 0 0 0 528.18172814 37.57827186c-30.35692259 0-59.93712185 3.17161927-88.41696369 9.32067556-158.32203037 33.98163001-281.72389149 157.41585408-309.97718927 312.43681109a374.73646592 374.73646592 0 0 0-5.59887815 87.51078741L159.36777443 938.57690852s89.42023111 6.47269149 89.42023112 0L243.70694371 449.46798592c114.79318073-22.13660445 203.88977778-81.13518592 277.09591666-163.66200035 6.05196629-6.79632555 11.87738851-13.78683221 17.60572075-20.87443001 5.59887815 7.11996075 11.42430037 14.07810333 17.47626667 20.87443001 68.93416334 77.76938667 150.55480149 134.63198037 257.09529998 159.55184185l-6.69923556 496.13179221c0 6.47269149 90.61767851-2.88034816 90.61767965-2.88034702L932.07766926 459.27411371l0.09708999-12.52465778z" fill="#A389F9" fill-opacity=".89" p-id="1299"></path><path d="M793.17371221 976.1185189c-13.20428999 0-24.95222557-1.16508445-34.4670811-9.77376484a32.84890851 32.84890851 0 0 1-10.80939406-24.27259221v-0.42072519l6.14905628-472.15047111c-87.47842333-26.40858112-163.75909149-77.34866147-232.1107126-155.02095815-73.07668594 82.85044963-155.60350037 135.50579371-251.46405888 160.19911111l4.66033778 464.51269632c0 9.02940445-3.81888739 17.79990073-10.45339592 23.9813211-10.80939406 10.06503481-23.49587001 11.97447851-67.83380593 10.19448889a1162.46300445 1162.46300445 0 0 1-41.74885888-2.45962297l-27.44421149-2.00653369L91.79287666 448.27053853a428.03907925 428.03907925 0 0 1 5.82542222-94.63074816 420.20712334 420.20712334 0 0 1 110.55356928-218.35624221A418.23295261 418.23295261 0 0 1 512.09708999 5.21481444c38.18887851 0 75.95703296 5.08106297 112.46301298 15.27555186A412.31043925 412.31043925 0 0 1 747.60596594 77.38532296a423.86419371 423.86419371 0 0 1 97.64054812 92.00930816 419.75403406 419.75403406 0 0 1 64.30618965 119.22697443 423.50819555 423.50819555 0 0 1 22.65441963 158.74275555v12.7188389l-0.12945408 1.16508445-35.72925667 506.61755221-26.47330702 2.88034816a1469.30093853 1469.30093853 0 0 1-42.29903816 3.8188874c-12.81592889 0.97090333-23.49587001 1.48871851-31.52200704 1.48871964-0.84145038 0.09708999-1.94180779 0.09708999-2.88034816 0.09708999zM521.83849074 212.11439446l25.17876963 33.01072554c4.98397184 6.56978147 10.25921593 13.13956295 15.76100296 19.51516445 68.5458011 80.39082667 141.84903111 127.93274482 230.75144704 149.58389703l24.53150037 5.9548763-6.37560036 491.53618148c7.63777593-0.42072519 16.40827221-1.06799445 25.30822258-1.81235371l31.8456411-451.95567331v-12.94538298c0.32363406-6.05196629 0.42072519-12.10393259 0.42072519-17.9293548 0-160.65219925-107.70558407-302.69541149-261.94981888-345.47990187-30.87473778-8.5763163-63.04401408-12.94538297-95.53692444-12.94538297a356.41875001 356.41875001 0 0 0-351.75841223 295.89908594 362.34126222 362.34126222 0 0 0-4.95160889 80.32609962l31.94273223 464.28615112c8.5763163 0.42072519 16.92608739 0.74435925 24.24022926 0.97090332l-4.85451889-486.77875257 25.69658481-5.17815409c95.63401443-19.32098333 177.09283555-69.51670557 248.71316594-153.53223851 5.37233408-6.27851037 10.67994112-12.84829184 15.76100295-19.5475274l25.27585963-33.01072668z" fill="#A389F9" p-id="1300"></path></svg>