<?xml version="1.0" standalone="no"?><!DOCTYPE svg PUBLIC "-//W3C//DTD SVG 1.1//EN" "http://www.w3.org/Graphics/SVG/1.1/DTD/svg11.dtd"><svg t="1592205169161" class="icon" viewBox="0 0 1024 1024" version="1.1" xmlns="http://www.w3.org/2000/svg" p-id="1418" xmlns:xlink="http://www.w3.org/1999/xlink" width="200" height="200"><defs><style type="text/css"></style></defs><path d="M284.1410368 741.01191147l-31.49368853-0.39442987c-33.07140693-0.48545173-64.0189632-12.80379307-87.16894827-34.95253333-23.24100693-22.1184-36.0448-51.4275552-36.0448-82.46613334 0-30.9475552 12.68242987-60.16568853 35.83241493-82.28408853a128.12894827 128.12894827 0 0 1 86.6531552-35.13457813l31.52402987-0.57647467 0.72817813 235.80823787z m-62.50192533-168.26974827c-18.05274027 10.4675552-30.2497184 29.3091552-30.2497184 50.45665173 0 21.3598816 12.288 40.2621632 30.58346666 50.6690368l-0.303408-101.12568853z m571.64989546 167.8753184h-31.09925866v-234.83733333h31.09925866c68.90382187 0 125.00385173 52.70186667 125.0038528 117.41866666s-56.10002987 117.41866667-125.0038528 117.41866667z m30.88687467-169.02826667v103.1585184c19.11466667-10.22482987 32.1308448-29.52154027 32.1308448-51.63994026 0-22.14874027-13.01617813-41.35442987-32.1308448-51.51857814z" fill="#46BAFF" p-id="1419"></path><path d="M857.5810368 227.76794027c0 61.22761493-31.34198507 115.99265173-80.4029632 151.52165973a16.47502187 16.47502187 0 0 0-4.46008853-0.5764736H253.28450347c-6.6749632 0-12.43970347 3.54986667-15.10968854 8.5864288a163.23318507 163.23318507 0 0 1-17.71899306-74.03140693c0-98.21297813 88.04882987-177.8877632 196.57765973-177.8877632 12.2273184 0 24.18157013 1.03158507 35.8020736 2.94305173 35.68071147-62.1985184 107.46690347-104.6755552 190.32746667-104.6755552 118.48059307 0 214.4483552 86.92622187 214.44835626 194.12005867z" fill="#46BAFF" p-id="1420"></path><path d="M238.93333333 475.74281493l-28.30791146-58.73967466a205.34613333 205.34613333 0 0 1-20.51034027-90.02097707c0-119.23911147 102.00557013-216.29914027 227.37351147-216.29914133 6.3108736 0 12.62174827 0.30340693 18.93262186 0.8192 44.8132736-66.74962987 122.0001184-107.34554027 206.34737814-107.34554027 65.536 0 127.06702187 24.30293333 173.33665173 68.32734827 46.26962987 43.9940736 71.8468736 102.6427264 71.8468736 164.96260693 0 71.2097184-33.55685973 137.65594027-92.05380693 182.0444448l-13.0465184 9.92142187-13.44094827-3.88361494H263.81274027l-24.94008854 50.2139264z m19.20568854-110.25825173H765.34518507c37.95626667-32.79834027 59.40717013-78.8252448 59.40717013-128.0379264 0.1213632-95.54299307-81.61659307-173.24562987-181.95342187-173.24562987-68.26666667 0-130.1921184 35.8020736-161.65546666 93.41914134l-10.7102816 19.7214816-22.9376-4.0353184a179.37445973 179.37445973 0 0 0-29.97665174-2.5789632c-90.56711147 0-164.26477013 70.08711147-164.26477013 156.25481493 0 13.19822187 1.66874027 26.00201493 4.9152 38.53274027z" fill="#46BAFF" p-id="1421"></path><path d="M675.53659307 387.2995552h-333.74814827c14.19946667-67.02269653 83.58874027-117.87377813 166.9347552-117.87377707 83.3763552 0 152.5532448 50.8510816 166.84373333 117.87377707z" fill="#376DB3" p-id="1422"></path><path d="M705.87733333 416.7907552h-394.42962986l6.37155626-32.37357013c7.91893333-40.04977813 31.3116448-76.64071147 65.83940694-103.0371552 34.89185173-26.69985173 79.37137813-41.44545173 125.12521493-41.44545174 93.84391147 0 174.15585173 60.6814816 190.72189653 144.42192534l6.3715552 32.43425173z m-316.4539264-55.00776213h238.41754134c-21.96669653-40.04977813-67.62951147-66.74962987-119.14808854-66.74962987-51.7309632 0-97.3027552 26.69985173-119.2694528 66.74962987z" fill="#46BAFF" p-id="1423"></path><path d="M654.3587552 1006.25066667l-259.53469547-0.09102187c-12.59140693 0-24.87940693-4.88485973-33.79958613-13.50162987l-0.21238507-0.1820448-125.61066666-123.24408853a44.63122987 44.63122987 0 0 1-13.622992-32.0701632l-0.303408-127.12770347-0.515792-181.89274133-0.303408-124.42737707c0-7.09973333 1.6384-13.89605973 4.67247466-19.99454826 7.88859307-15.77718507 24.6366816-25.88065173 42.93214827-25.88065174h511.66625173c4.18702187 0 8.34370347 0.48545173 12.37902187 1.60805867a45.48077013 45.48077013 0 0 1 35.1649184 44.05475627v433.66020693c0 11.98459307-4.7938368 23.27134827-13.41060693 31.97914133l-0.1213632 0.09102187-125.18589654 123.15306667c-9.04154027 8.79881493-21.4205632 13.8657184-34.19401493 13.8657184z m-253.40586667-60.07466667l247.15567467 0.1213632 116.75117013-114.83970347V417.792H282.83638507l0.303408 110.13688853 0.515792 181.89274134 0.303408 121.45398506 116.99389546 114.93072534z" fill="#46BAFF" p-id="1424"></path><path d="M421.6452736 572.40841493c0 20.84408853-17.9010368 37.7438816-39.92841387 37.7438816-22.02737813 0-39.8980736-16.89979307-39.89807466-37.7438816 0-20.81374827 17.9010368-37.71354027 39.89807466-37.71354133 22.0577184 0 39.92841493 16.89979307 39.92841387 37.71354133z m279.89333333 0c0 20.84408853-17.9010368 37.7438816-39.92841386 37.7438816-22.02737813 0-39.92841493-16.89979307-39.92841494-37.7438816 0-20.81374827 17.9010368-37.71354027 39.92841494-37.71354133 22.02737813 0 39.92841493 16.89979307 39.92841386 37.71354133z m-170.66666666 315.9684736c-96.5442368 0-175.00539307-74.27413333-175.005392-165.4177184h63.86725866c0 57.95081493 49.81949653 105.0396448 111.13813334 105.0396448s111.13813333-47.08882987 111.13813333-105.0396448h63.8976c0 91.26494827-78.4611552 165.4177184-175.03573333 165.4177184z" fill="#46BAFF" p-id="1425"></path></svg>